<svg data-v-423bf9ae="" xmlns="http://www.w3.org/2000/svg" viewBox="0 0 783 90" class="iconLeft"><!----><!----><!----><g data-v-423bf9ae="" id="f2930564-7eff-47d2-a8eb-e205f4365dc2" fill="#FFFFFF" transform="matrix(4.773269805623416,0,0,4.773269805623416,219.31382493680417,-1.7064443196819568)"><path d="M3.70 13.86L3.70 13.86Q1.96 13.86 1.19 12.91L1.19 12.91L1.19 12.91Q0.42 11.96 0.42 10.30L0.42 10.30L0.42 10.30Q0.42 8.44 1.27 7.57L1.27 7.57L1.27 7.57Q2.11 6.71 3.56 6.71L3.56 6.71L3.56 6.71Q4.98 6.71 5.64 7.35L5.64 7.35L5.64 7.35Q6.30 7.99 6.30 9.37L6.30 9.37L6.30 9.37Q6.30 9.84 6.26 10.22L6.26 10.22L2.18 10.22L2.18 10.60L2.18 10.60Q2.18 11.82 2.68 12.37L2.68 12.37L2.68 12.37Q3.18 12.92 4.13 12.92L4.13 12.92L4.13 12.92Q4.97 12.92 6.12 12.60L6.12 12.60L6.23 13.15L6.23 13.15Q5.17 13.86 3.70 13.86L3.70 13.86ZM2.21 9.55L4.62 9.41L4.62 9.10L4.62 9.10Q4.62 8.34 4.40 7.96L4.40 7.96L4.40 7.96Q4.19 7.57 3.63 7.57L3.63 7.57L3.63 7.57Q2.86 7.57 2.56 8.04L2.56 8.04L2.56 8.04Q2.25 8.51 2.21 9.55L2.21 9.55ZM11.76 13.06L11.76 13.06Q10.67 13.86 9.49 13.86L9.49 13.86L9.49 13.86Q8.72 13.86 8.19 13.37L8.19 13.37L8.19 13.37Q7.66 12.88 7.39 12.08L7.39 12.08L7.39 12.08Q7.13 11.27 7.13 10.30L7.13 10.30L7.13 10.30Q7.13 8.62 7.92 7.67L7.92 7.67L7.92 7.67Q8.72 6.71 10.16 6.71L10.16 6.71L10.16 6.71Q10.53 6.71 10.87 6.78L10.87 6.78L10.87 6.78Q11.21 6.85 11.45 6.94L11.45 6.94L11.45 6.94Q11.69 7.03 11.72 7.06L11.72 7.06L11.72 4.75L10.56 4.59L10.56 4.05L12.81 3.50L13.36 3.50L13.36 12.68L14.49 13.02L14.49 13.55L14.49 13.55Q13.64 13.79 12.96 13.79L12.96 13.79L12.96 13.79Q12.54 13.79 12.19 13.59L12.19 13.59L12.19 13.59Q11.84 13.40 11.76 13.06L11.76 13.06ZM10.29 12.84L10.29 12.84Q10.70 12.84 11.10 12.68L11.10 12.68L11.10 12.68Q11.49 12.53 11.72 12.33L11.72 12.33L11.72 7.94L11.72 7.94Q11.48 7.76 11.14 7.65L11.14 7.65L11.14 7.65Q10.79 7.55 10.46 7.55L10.46 7.55L10.46 7.55Q9.69 7.55 9.29 8.27L9.29 8.27L9.29 8.27Q8.89 9.00 8.89 10.28L8.89 10.28L8.89 10.28Q8.89 11.47 9.23 12.15L9.23 12.15L9.23 12.15Q9.58 12.84 10.29 12.84L10.29 12.84ZM16.91 5.73L16.91 5.73Q16.48 5.73 16.16 5.43L16.16 5.43L16.16 5.43Q15.83 5.14 15.83 4.72L15.83 4.72L15.83 4.72Q15.83 4.28 16.16 3.97L16.16 3.97L16.16 3.97Q16.48 3.65 16.91 3.65L16.91 3.65L16.91 3.65Q17.33 3.65 17.64 3.97L17.64 3.97L17.64 3.97Q17.95 4.28 17.95 4.72L17.95 4.72L17.95 4.72Q17.95 5.14 17.64 5.43L17.64 5.43L17.64 5.43Q17.33 5.73 16.91 5.73L16.91 5.73ZM18.87 13.72L14.95 13.72L14.95 13.10L16.10 12.82L16.10 7.94L14.95 7.78L14.95 7.24L17.21 6.71L17.74 6.71L17.74 12.82L18.87 13.10L18.87 13.72ZM21.80 7.07L21.80 7.07Q22.08 6.92 22.49 6.81L22.49 6.81L22.49 6.81Q22.90 6.71 23.28 6.71L23.28 6.71L23.28 6.71Q24.78 6.71 25.59 7.57L25.59 7.57L25.59 7.57Q26.40 8.44 26.40 10.22L26.40 10.22L26.40 10.22Q26.40 11.80 25.62 12.83L25.62 12.83L25.62 12.83Q24.84 13.86 22.90 13.86L22.90 13.86L22.90 13.86Q22.32 13.86 21.48 13.75L21.48 13.75L21.48 13.75Q20.65 13.64 20.15 13.48L20.15 13.48L20.15 4.75L19.01 4.59L19.01 4.05L21.27 3.50L21.80 3.50L21.80 7.07ZM21.80 12.82L21.80 12.82Q21.95 12.91 22.25 12.96L22.25 12.96L22.25 12.96Q22.54 13.02 22.90 13.02L22.90 13.02L22.90 13.02Q23.88 13.02 24.26 12.36L24.26 12.36L24.26 12.36Q24.63 11.69 24.63 10.25L24.63 10.25L24.63 10.25Q24.63 8.86 24.26 8.20L24.26 8.20L24.26 8.20Q23.90 7.55 22.93 7.55L22.93 7.55L22.93 7.55Q22.60 7.55 22.34 7.62L22.34 7.62L22.34 7.62Q22.08 7.69 21.80 7.84L21.80 7.84L21.80 12.82ZM30.98 13.72L27.05 13.72L27.05 13.10L28.20 12.82L28.20 4.75L27.05 4.59L27.05 4.05L29.30 3.50L29.83 3.50L29.83 12.82L30.98 13.10L30.98 13.72ZM34.90 13.86L34.90 13.86Q33.17 13.86 32.40 12.91L32.40 12.91L32.40 12.91Q31.63 11.96 31.63 10.30L31.63 10.30L31.63 10.30Q31.63 8.44 32.47 7.57L32.47 7.57L32.47 7.57Q33.32 6.71 34.76 6.71L34.76 6.71L34.76 6.71Q36.19 6.71 36.85 7.35L36.85 7.35L36.85 7.35Q37.51 7.99 37.51 9.37L37.51 9.37L37.51 9.37Q37.51 9.84 37.46 10.22L37.46 10.22L33.39 10.22L33.39 10.60L33.39 10.60Q33.39 11.82 33.89 12.37L33.89 12.37L33.89 12.37Q34.38 12.92 35.34 12.92L35.34 12.92L35.34 12.92Q36.18 12.92 37.32 12.60L37.32 12.60L37.44 13.15L37.44 13.15Q36.37 13.86 34.90 13.86L34.90 13.86ZM33.42 9.55L35.83 9.41L35.83 9.10L35.83 9.10Q35.83 8.34 35.61 7.96L35.61 7.96L35.61 7.96Q35.39 7.57 34.83 7.57L34.83 7.57L34.83 7.57Q34.06 7.57 33.76 8.04L33.76 8.04L33.76 8.04Q33.46 8.51 33.42 9.55L33.42 9.55ZM40.85 13.72L40.85 13.13L42 12.82L42 7.74L40.87 7.74L40.87 7.15L42 6.71L42 6.71Q42 5.19 42.81 4.35L42.81 4.35L42.81 4.35Q43.62 3.50 45.05 3.50L45.05 3.50L45.05 3.50Q45.42 3.50 45.86 3.61L45.86 3.61L45.86 3.61Q46.31 3.71 46.47 3.82L46.47 3.82L46.23 5.70L45.46 5.70L45.23 4.65L45.23 4.65Q44.97 4.55 44.70 4.55L44.70 4.55L44.70 4.55Q44.06 4.55 43.85 5.01L43.85 5.01L43.85 5.01Q43.64 5.46 43.64 6.38L43.64 6.38L43.64 6.83L45.74 6.83L45.74 7.84L43.65 7.71L43.65 12.78L45.28 13.08L45.28 13.72L40.85 13.72ZM49.49 6.71L49.49 6.71Q51.25 6.71 52.08 7.69L52.08 7.69L52.08 7.69Q52.91 8.68 52.91 10.30L52.91 10.30L52.91 10.30Q52.91 11.89 52.07 12.87L52.07 12.87L52.07 12.87Q51.23 13.86 49.49 13.86L49.49 13.86L49.49 13.86Q47.80 13.86 46.96 12.87L46.96 12.87L46.96 12.87Q46.13 11.87 46.13 10.30L46.13 10.30L46.13 10.30Q46.13 8.68 46.95 7.69L46.95 7.69L46.95 7.69Q47.77 6.71 49.49 6.71L49.49 6.71ZM51.13 10.28L51.13 10.28Q51.13 8.97 50.76 8.26L50.76 8.26L50.76 8.26Q50.40 7.55 49.46 7.55L49.46 7.55L49.46 7.55Q48.58 7.55 48.24 8.26L48.24 8.26L48.24 8.26Q47.89 8.97 47.89 10.28L47.89 10.28L47.89 10.28Q47.89 11.56 48.26 12.29L48.26 12.29L48.26 12.29Q48.62 13.01 49.55 13.01L49.55 13.01L49.55 13.01Q50.46 13.01 50.79 12.29L50.79 12.29L50.79 12.29Q51.13 11.58 51.13 10.28L51.13 10.28ZM57.60 7.78L57.60 7.78Q56.98 7.78 56.48 8.02L56.48 8.02L56.48 12.82L58.09 13.12L58.09 13.72L53.69 13.72L53.69 13.13L54.84 12.82L54.84 7.95L53.69 7.78L53.69 7.24L55.87 6.71L56.46 6.71L56.46 7.35L56.46 7.35Q56.94 7.04 57.51 6.85L57.51 6.85L57.51 6.85Q58.09 6.66 58.58 6.66L58.58 6.66L58.58 6.66Q58.87 6.66 58.97 6.68L58.97 6.68L58.72 9.02L57.89 9.02L57.60 7.78ZM62.86 13.86L62.86 13.86Q61.12 13.86 60.35 12.91L60.35 12.91L60.35 12.91Q59.58 11.96 59.58 10.30L59.58 10.30L59.58 10.30Q59.58 8.44 60.43 7.57L60.43 7.57L60.43 7.57Q61.28 6.71 62.72 6.71L62.72 6.71L62.72 6.71Q64.15 6.71 64.81 7.35L64.81 7.35L64.81 7.35Q65.46 7.99 65.46 9.37L65.46 9.37L65.46 9.37Q65.46 9.84 65.42 10.22L65.42 10.22L61.35 10.22L61.35 10.60L61.35 10.60Q61.35 11.82 61.85 12.37L61.85 12.37L61.85 12.37Q62.34 12.92 63.29 12.92L63.29 12.92L63.29 12.92Q64.13 12.92 65.28 12.60L65.28 12.60L65.39 13.15L65.39 13.15Q64.33 13.86 62.86 13.86L62.86 13.86ZM61.38 9.55L63.78 9.41L63.78 9.10L63.78 9.10Q63.78 8.34 63.57 7.96L63.57 7.96L63.57 7.96Q63.35 7.57 62.79 7.57L62.79 7.57L62.79 7.57Q62.02 7.57 61.72 8.04L61.72 8.04L61.72 8.04Q61.42 8.51 61.38 9.55L61.38 9.55ZM69.09 7.56L69.09 7.56Q68.52 7.56 68.19 7.78L68.19 7.78L68.19 7.78Q67.86 8.01 67.86 8.40L67.86 8.40L67.86 8.40Q67.86 8.75 68.03 8.96L68.03 8.96L68.03 8.96Q68.21 9.17 68.63 9.31L68.63 9.31L70.03 9.77L70.03 9.77Q70.81 10.02 71.15 10.46L71.15 10.46L71.15 10.46Q71.48 10.91 71.48 11.69L71.48 11.69L71.48 11.69Q71.48 12.70 70.75 13.28L70.75 13.28L70.75 13.28Q70.01 13.86 68.68 13.86L68.68 13.86L68.68 13.86Q68.17 13.86 67.54 13.77L67.54 13.77L67.54 13.77Q66.91 13.68 66.44 13.51L66.44 13.51L66.61 11.68L67.30 11.68L67.59 12.84L67.59 12.84Q68.10 13.01 68.67 13.01L68.67 13.01L68.67 13.01Q69.36 13.01 69.72 12.75L69.72 12.75L69.72 12.75Q70.08 12.50 70.08 12.01L70.08 12.01L70.08 12.01Q70.08 11.69 69.89 11.52L69.89 11.52L69.89 11.52Q69.69 11.34 69.17 11.16L69.17 11.16L67.87 10.71L67.87 10.71Q67.17 10.46 66.83 10.01L66.83 10.01L66.83 10.01Q66.49 9.56 66.49 8.83L66.49 8.83L66.49 8.83Q66.49 7.83 67.14 7.27L67.14 7.27L67.14 7.27Q67.80 6.71 69.12 6.71L69.12 6.71L69.12 6.71Q69.62 6.71 70.18 6.81L70.18 6.81L70.18 6.81Q70.73 6.92 71.20 7.13L71.20 7.13L71.01 8.79L70.35 8.79L70.06 7.76L70.06 7.76Q69.62 7.56 69.09 7.56L69.09 7.56ZM76.52 13.55L76.52 13.55Q76.10 13.68 75.47 13.76L75.47 13.76L75.47 13.76Q74.84 13.85 74.47 13.85L74.47 13.85L74.47 13.85Q73.78 13.85 73.52 13.54L73.52 13.54L73.52 13.54Q73.26 13.23 73.26 12.74L73.26 12.74L73.26 7.74L72.25 7.74L72.25 7.14L73.40 6.68L74.14 5.28L74.89 5.28L74.89 6.83L76.72 6.83L76.72 7.84L74.89 7.73L74.89 12.66L76.52 12.96L76.52 13.55ZM79.87 13.72L79.87 13.13L81.02 12.82L81.02 7.74L79.88 7.74L79.88 7.15L81.02 6.71L81.02 6.71Q81.02 5.19 81.83 4.35L81.83 4.35L81.83 4.35Q82.64 3.50 84.07 3.50L84.07 3.50L84.07 3.50Q84.43 3.50 84.88 3.61L84.88 3.61L84.88 3.61Q85.33 3.71 85.48 3.82L85.48 3.82L85.25 5.70L84.48 5.70L84.25 4.65L84.25 4.65Q83.99 4.55 83.72 4.55L83.72 4.55L83.72 4.55Q83.08 4.55 82.87 5.01L82.87 5.01L82.87 5.01Q82.66 5.46 82.66 6.38L82.66 6.38L82.66 6.83L84.76 6.83L84.76 7.84L82.67 7.71L82.67 12.78L84.29 13.08L84.29 13.72L79.87 13.72ZM88.51 6.71L88.51 6.71Q90.27 6.71 91.10 7.69L91.10 7.69L91.10 7.69Q91.92 8.68 91.92 10.30L91.92 10.30L91.92 10.30Q91.92 11.89 91.08 12.87L91.08 12.87L91.08 12.87Q90.24 13.86 88.51 13.86L88.51 13.86L88.51 13.86Q86.81 13.86 85.98 12.87L85.98 12.87L85.98 12.87Q85.15 11.87 85.15 10.30L85.15 10.30L85.15 10.30Q85.15 8.68 85.97 7.69L85.97 7.69L85.97 7.69Q86.79 6.71 88.51 6.71L88.51 6.71ZM90.15 10.28L90.15 10.28Q90.15 8.97 89.78 8.26L89.78 8.26L89.78 8.26Q89.42 7.55 88.48 7.55L88.48 7.55L88.48 7.55Q87.60 7.55 87.26 8.26L87.26 8.26L87.26 8.26Q86.91 8.97 86.91 10.28L86.91 10.28L86.91 10.28Q86.91 11.56 87.28 12.29L87.28 12.29L87.28 12.29Q87.64 13.01 88.56 13.01L88.56 13.01L88.56 13.01Q89.47 13.01 89.81 12.29L89.81 12.29L89.81 12.29Q90.15 11.58 90.15 10.28L90.15 10.28ZM96.61 7.78L96.61 7.78Q96.00 7.78 95.49 8.02L95.49 8.02L95.49 12.82L97.10 13.12L97.10 13.72L92.71 13.72L92.71 13.13L93.86 12.82L93.86 7.95L92.71 7.78L92.71 7.24L94.89 6.71L95.48 6.71L95.48 7.35L95.48 7.35Q95.96 7.04 96.53 6.85L96.53 6.85L96.53 6.85Q97.10 6.66 97.59 6.66L97.59 6.66L97.59 6.66Q97.89 6.66 97.99 6.68L97.99 6.68L97.73 9.02L96.91 9.02L96.61 7.78ZM101.43 7.66L101.43 7.66Q100.84 7.66 100.30 7.84L100.30 7.84L99.97 9.02L99.29 9.02L99.05 7.22L99.05 7.22Q100.41 6.71 101.86 6.71L101.86 6.71L101.86 6.71Q102.96 6.71 103.52 7.07L103.52 7.07L103.52 7.07Q104.08 7.43 104.08 8.37L104.08 8.37L104.08 12.68L105.22 13.02L105.22 13.55L105.22 13.55Q104.33 13.79 103.71 13.79L103.71 13.79L103.71 13.79Q103.28 13.79 102.93 13.59L102.93 13.59L102.93 13.59Q102.58 13.40 102.48 13.03L102.48 13.03L102.48 13.03Q101.91 13.44 101.39 13.65L101.39 13.65L101.39 13.65Q100.87 13.86 100.28 13.86L100.28 13.86L100.28 13.86Q99.54 13.86 99.11 13.38L99.11 13.38L99.11 13.38Q98.69 12.89 98.69 12.14L98.69 12.14L98.69 12.14Q98.69 11.47 99.09 10.90L99.09 10.90L99.09 10.90Q99.48 10.33 100.48 10.14L100.48 10.14L102.44 9.76L102.44 8.71L102.44 8.71Q102.44 8.15 102.21 7.90L102.21 7.90L102.21 7.90Q101.99 7.66 101.43 7.66L101.43 7.66ZM101.39 10.72L101.39 10.72Q100.81 10.85 100.57 11.16L100.57 11.16L100.57 11.16Q100.32 11.47 100.32 11.94L100.32 11.94L100.32 11.94Q100.32 12.82 101.15 12.82L101.15 12.82L101.15 12.82Q101.44 12.82 101.81 12.69L101.81 12.69L101.81 12.69Q102.17 12.56 102.44 12.39L102.44 12.39L102.44 10.50L101.39 10.72ZM108.46 6.83L108.46 7.35L107.76 7.69L109.21 11.54L110.49 7.71L109.54 7.48L109.54 6.83L112.46 6.83L112.46 7.45L111.58 7.71L109.58 13.24L109.58 13.24Q109.07 14.67 108.49 15.37L108.49 15.37L108.49 15.37Q107.90 16.07 107.02 16.07L107.02 16.07L107.02 16.07Q106.39 16.07 105.56 15.69L105.56 15.69L105.66 15.12L106.46 15.12L106.46 15.12Q107.16 15.12 107.59 14.69L107.59 14.69L107.59 14.69Q108.02 14.25 108.39 13.38L108.39 13.38L106.01 7.69L105.27 7.35L105.27 6.83L108.46 6.83ZM115.56 7.56L115.56 7.56Q114.98 7.56 114.65 7.78L114.65 7.78L114.65 7.78Q114.32 8.01 114.32 8.40L114.32 8.40L114.32 8.40Q114.32 8.75 114.50 8.96L114.50 8.96L114.50 8.96Q114.67 9.17 115.09 9.31L115.09 9.31L116.49 9.77L116.49 9.77Q117.28 10.02 117.61 10.46L117.61 10.46L117.61 10.46Q117.95 10.91 117.95 11.69L117.95 11.69L117.95 11.69Q117.95 12.70 117.22 13.28L117.22 13.28L117.22 13.28Q116.48 13.86 115.15 13.86L115.15 13.86L115.15 13.86Q114.63 13.86 114.00 13.77L114.00 13.77L114.00 13.77Q113.37 13.68 112.91 13.51L112.91 13.51L113.08 11.68L113.76 11.68L114.06 12.84L114.06 12.84Q114.56 13.01 115.14 13.01L115.14 13.01L115.14 13.01Q115.82 13.01 116.19 12.75L116.19 12.75L116.19 12.75Q116.55 12.50 116.55 12.01L116.55 12.01L116.55 12.01Q116.55 11.69 116.35 11.52L116.35 11.52L116.35 11.52Q116.16 11.34 115.64 11.16L115.64 11.16L114.34 10.71L114.34 10.71Q113.64 10.46 113.30 10.01L113.30 10.01L113.30 10.01Q112.95 9.56 112.95 8.83L112.95 8.83L112.95 8.83Q112.95 7.83 113.61 7.27L113.61 7.27L113.61 7.27Q114.27 6.71 115.58 6.71L115.58 6.71L115.58 6.71Q116.09 6.71 116.64 6.81L116.64 6.81L116.64 6.81Q117.19 6.92 117.67 7.13L117.67 7.13L117.47 8.79L116.82 8.79L116.52 7.76L116.52 7.76Q116.09 7.56 115.56 7.56L115.56 7.56Z"></path></g><!----><g data-v-423bf9ae="" id="aa5b7a25-82bc-4f19-8668-950dd07e5346" transform="matrix(2.253266731343258,0,0,2.253266731343258,-11.403941181655512,-58.62034425582168)" stroke="none" fill="#88DF95"><path clip-rule="evenodd" d="M71.856 33.937c-.287-.04-.569-.087-.851-.139 1.472.68 2.882 1.618 4.267 2.521-1.048-.922-2.251-1.623-3.416-2.382z"></path><path d="M94.555 43.874c-1.256-.377-2.913-.377-3.959-1.138-.634-.296-1.597-.624-2.185-1.001-3.882-2.23-6.507-4.323-10.888-5.719-.374.378-.677 1.083-1.218.962.394.245.785.482 1.178.697 1.237.68 2.491 1.421 3.729 2.074 1.054.553 2.716.821 3.315 2.071-4.847 1.582-10.724 1.98-16.161 2.485-8.174.766-15.134-.002-23.641-2.343-8.932-2.458-13.788-7.508-29.402-3.043 4.143-3.895 9.739-5.385 15.332-7.044 5.264-1.562 11.139-3.132 17.404-3.315.208-.006.406.007.607.013 2.641-.303 5.399-.038 7.917.67 1.049.294 1.961.512 3.431 1.047 1.945.888 2.948 1.193 4.619 1.999 1.02.491 3.262 1.321 4.396 1.509-1.834-.728-4.438-2.649-5.886-4.18a1.497 1.497 0 0 1-.347-.61c-.415-.229-.836-.456-1.228-.698-2.706-.802-5.372-1.555-6.881-1.821-1.881-.331-4.011-.357-5.802-.416-4.827-.155-9.579.054-14.917 1.244-.091.02-.116.734-.416.829-2.583.825-4.999.926-7.872 1.657-.051.427-.064.688-.415.83-1.943.789-3 1.148-4.558 2.071-3.511 2.083-7.908 4.104-11.189 6.216-1.13-.037-.533 1.23-1.358.54.005 1.678-3.559 1.703-2.372 3.19-.186-.678 2.259-.678 2.072 0-.421.542-.406 1.528-.828 2.071 1.426 1.729 4.22 1.471 5.8 2.072 2.001.764 3.639 2.816 5.802 3.729 3.731 1.575 8.107 1.533 12.433 2.488 3.315.731 6.633.9 10.074.669a.546.546 0 0 1 .281-.019c.555-.083.759-.433.904-.464a7.89 7.89 0 0 0 .726-.868.827.827 0 0 1 .369-.289c.108-.247.343-.41.6-.471.002-.018.008-.033.01-.051.039-.444.358-.692.705-.764.03-.185.043-.39.006-.645-4.229.054-7.797 1.744-11.603 0 3.434-.777 8.319-1.025 12.019-2.075-.39 1.365.096 1.862.127 2.771.25.11.435.343.403.712a6.533 6.533 0 0 1-.636 2.292 5.54 5.54 0 0 1-.272 1.167 4.07 4.07 0 0 0 .503-.285c.148-.166.308-.323.523-.476.037-.025.073-.033.109-.051 1.138-1.131 1.761-2.885 1.801-4.422a.84.84 0 0 1 .075-.325c-.159-.486-.338-1.051-.149-1.797 1.999 1.179 6.719-.366 8.703.828-1.577-.195-2.586.176-2.899 1.245 1.072 1.593 1.603 3.471 2.023 5.541 1.479 2.585 2.698 5.316 4.604 7.217 1.097.898 2.502.622 3.886.983.273-.017.213.054.505 0 1.125.097 2.003.11 1.414-1.726-2.724-.258-7.315-.168-7.046-4.559 8.05 1.14 14.044-.898 21.411-2.855.157-.371.457-.692.925-.867a34.435 34.435 0 0 0 3.359-1.473c.215-.263.465-.49.825-.606h.314a39.384 39.384 0 0 0 2.375-1.391 57.18 57.18 0 0 1 1.887-1.378c-.006-.043-.017-.085-.018-.13.044.024.093.026.139.042.658-.466 1.302-.926 1.929-1.39.549-.624 1.689-1.274 2.162-1.945.527-.735.78-.848.415-1.281zM11.18 40.99c-.013-.75 2.085-1.439 2.072-.828.425 1.394-1.289.647-2.072.828zm2.807.528c2.509-.426 4.913-2.166 7.441-2.376a624.57 624.57 0 0 1 2.321-.273c1.388-.159 3.476.542 3.731.546.778.009.624 1.06-5.415 1.377l-.411.021h-.009-.003.002-.003c-3.445.49-4.926 1.45-7.333 1.867-.761.13-1.088-1.031-.321-1.162zm7.967.717c.059 1.716-2.883.432-4.145.829 1.031-.628 2.517-.8 4.145-.829zm-3.315 3.73c-.725-.103-2.388-.047-2.488-1.244 3.117.469 7.836-1.75 11.784-1.393 1.098.101 7.167 1.087 7.917 2.389-3.555-1.336-13.809.727-17.213.248zm14.917 2.485c-4.288.5-9.705.397-12.845-.828 5.545-.437 11.375-.833 16.991-.83-.483 1.348-2.699 1.49-4.146 1.658zm30.146 7.3c-1.785.146-2.148.114-4.866-.669-.659-2.104-.997-4.53-2.487-5.801 2.21.972 6.29 3.652 9.944 4.558-.855 1.526-.134 1.112-2.591 1.912zm-3.208-7.715c2.531-.278 4.046 2.292 5.388 2.902.245.113 5.172 1.45 4.951 2.66-2.328-.846-9.533-3.191-10.339-5.562zm10.773 2.075c-1.848-.561-5.951-1.443-6.268-3.275 4.892.502 13.311 5.024 16.519 4.547-1.683 2.343-7.978-.585-10.251-1.272zm3.317-2.487c2.447-1.152 5.9 1.144 9.944.413-1.701 3.333-7.001.042-9.944-.413zm7.042-2.073c2.956-.88 6.095.378 9.118-.829-1.847 3.016-5.096.718-9.118.829z"></path><path clip-rule="evenodd" d="M38.117 47.207c1.673 1.459.976-1.333 0 0z"></path><path d="M34.597 27.153c-4.479 1.162-9.34 2.172-13.63 3.913-5.345 2.169-9.97 6.501-15.016 9.283-1.155.637-.103 1.557.83 1.043 4.207-2.319 8.114-5.097 12.175-7.655 4.578-2.883 10.74-4.003 15.969-5.36 1.188-.308.857-1.531-.328-1.224zM62.958 30.85c3.1 2.075 6.633 3.273 10.111 4.552 2.086.767 3.62 1.989 5.52 3.025 1.911 1.042 3.948 1.743 5.757 3.003.707.493 2.397-.485 1.488-1.119-2.906-2.027-6.308-3.639-9.396-5.324-3.864-2.108-8.26-2.757-11.991-5.256-.716-.479-2.407.505-1.489 1.119z"></path><path d="M59.361 29.313c2.744-.217 6.596 2.875 9.084 4.121 3.332 1.668 6.671 3.337 10.043 4.925.584.275 2.383-1.209 1.56-1.632-3.754-1.929-4.964-2.734-8.778-4.654-2.855-1.437-8.272-4.116-11.599-3.853-1.007.079-1.775 1.208-.31 1.093zM5.391 42.047c-.095 1.496.527 3.107 2.179 3.313.521.065 1.175-.216 1.319-.752.247-.916-.295-1.809-.091-2.73.202-.902-1.771-.642-1.951.169-.206.926.331 1.836.091 2.73l1.319-.752c-.806-.1-.954-1.543-.916-2.147.062-.961-1.898-.652-1.95.169zM46.628 47.682c2.413 2.709-1.538 7.061-4.135 8.031l1.271-.008c1.65-1.942 5.305-5.11 3.976-7.995-.194-.422-2.055.251-1.932.518 1.295 2.81-2.322 5.934-3.942 7.842-.213.25 1.18.026 1.271-.008 2.801-1.046 8.334-5.628 5.422-8.898-.379-.426-2.009.431-1.931.518z"></path><path d="M45.536 47.955c-.12 2.752-1.568 5.198-3.84 6.737-.803.543 1.137.294 1.48.061 2.505-1.695 4.158-4.252 4.292-7.315.012-.296-1.907-.054-1.932.517zM12.542 41.218c.165-.079.657-.29.891-.5.37-.333.438-.717.451-1.198.015-.553-1.676.017-1.854.283-.154.231-.39.497-.446.776-.055.275.145.577.231.824.189.539 1.851.088 1.925-.403.046-.303.153-.642.109-.95-.038-.263-.391-.479-.575-.625-.421-.337-1.506-.004-1.871.327-.129.118-.269.217-.234.411.026.146.209.148.236.285.109.547 2.05.077 1.932-.518a.457.457 0 0 0-.115-.23c-.05-.048-.141-.17-.125-.083l-.208.355-.411.202-1.009-.041c.146.116.396.261.449.434.061.198-.066.525-.096.722l1.925-.403c-.07-.201-.163-.396-.227-.598-.048-.153.207-.416.285-.532l-1.854.283c-.003.116-.029.481-.096.541.115-.104-.149.067.022-.009a18.38 18.38 0 0 0-.495.227c-.224.108-.62.482-.202.634.437.155.97-.026 1.362-.214z"></path><path d="M18.284 42.298c-2.096.764-3.853 1.276-6.017.424-.603-.237-3.204-1.976-1.276-2.348.845-.164 1.644-1.178.305-.919-.853.165-2.511.432-2.862 1.424-.337.95.596 1.695 1.291 2.169 2.893 1.977 6.287.984 9.282-.107 1.282-.466.091-.939-.723-.643z"></path><path d="M22.24 41.508c-1.038 1.21-2.514 1.301-4.01 1.39-.719.042-1.683 1.159-.492 1.143 1.797-.024 3.542-.365 5.071-1.353.414-.268.507-.695-.021-.863-.807-.257-1.601-.283-2.438-.188-.374.042-.998.246-1.092.679-.096.443.571.485.845.454a3.424 3.424 0 0 1 1.514.15l-.021-.863c-.948.613-2.004.815-3.121.831l-.492 1.143c2.101-.124 4.372-.471 5.819-2.158.755-.882-1.116-.885-1.562-.365zM43.08 54.4c-3.606 1.646-4.202 5.943-1.777 8.945 2.651 3.283 8.012 2.692 11.7 2.355.492-.045 2.11-.88.84-.764-3.326.304-6.913.615-9.801-1.381-2.861-1.979-3.341-7.321.149-8.914 1.159-.528-.662-.446-1.111-.241z"></path><path d="M44.54 53.112c-2.271 1.675-5.657 5.402-3.04 8.255 3.554 3.873 10.165 3.104 14.878 3.077.369-.003 2.187-.737 1.268-.732-4.524.025-9.604.552-13.512-2.198-3.632-2.556-.325-6.767 2.144-8.587.368-.272-1.384-.075-1.738.185z"></path><path d="M45.061 53.562c-2.168 2.562-4.217 6.43-1.37 9.247 2.083 2.063 6.493 2.546 9.253 2.608.288.007 1.985-.673 1.156-.972-2.889-1.04-6.315-.418-8.911-2.229-2.559-1.785-.047-5.463.91-7.415.259-.527-1.637-.332-1.927.26-.91 1.854-3.063 4.933-1.556 7.013 2.262 3.122 6.724 2.116 9.937 3.273l1.156-.972c-2.703-.062-6.021-.639-8.22-2.306-2.953-2.24-.387-6.435 1.361-8.501.527-.621-1.408-.458-1.789-.006z"></path><path d="M42.876 63.917c2.071 1.668 4.639 1.787 7.186 1.495.958-.11 1.586-1.272.251-1.119-1.995.229-4.014.168-5.646-1.146-.553-.445-2.35.32-1.791.77zM51.251 65.632c2.08.012 4.067-.464 6.014-1.17.109-.039.867-.366.566-.585-.313-.229-.937-.025-1.25.089-1.32.479-2.674.843-4.088.834-.469-.002-.972.102-1.366.366-.295.197-.264.463.124.466zM43.204 53.688c-.822.817-1.828 1.396-2.548 2.32-.727.933-.796 2.146-.808 3.278-.005.444 1.925.133 1.932-.518.014-1.262.183-2.345 1.057-3.305.628-.69 1.475-1.175 2.14-1.835.331-.329-.283-.439-.487-.433-.453.016-.96.168-1.286.493z"></path><g><path d="M41.925 57.158c.571-1.118 1.042-1.765 2.092-2.476 1.046-.709 1.951-1.615 2.709-2.62.75-.994-1.067-1.384-1.634-.633-.817 1.084-1.79 1.925-2.928 2.658-1.048.676-1.551 1.733-2.099 2.805-.513 1.008 1.446 1.077 1.86.266z"></path></g><g><path d="M41.869 53.648c.753-.198 1.48-.487 2.092-.979.583-.469 1.013-1.083 1.477-1.662.761-.949-1.082-1.175-1.604-.523-.691.862-1.19 1.614-2.301 1.907-.36.095-.92.431-.797.888.122.458.773.464 1.133.369z"></path></g></g><!----></svg>